# xmcd
#
# Track frame offsets:
#       150
#       13900
#       28219
#       42365
#       60238
#       77073
#       93654
#       109834
#       131004
#       144830
#
# Disc length: 2106 seconds
#
# Revision: 0
# Processed by: cddbd v1.5.2PL0 Copyright (c) Steve Scherf et al.
# Submitted via: CD-DA_X-Tractor v0.24
#
DISCID=8208380a
DTITLE=Claude Diamond - Diamond Dust
DYEAR=2006
DGENRE=Country
TTITLE0=Last Man On Earth
TTITLE1=Land Of Zydeco
TTITLE2=Half My Doublewide
TTITLE3=Land On The Moon
TTITLE4=I Hope Hell Freezes Over
TTITLE5=North Of Exit Ten
TTITLE6=I Drop Quarters
TTITLE7=Edge Of The World
TTITLE8=The Girl I Love
TTITLE9=The Phone Call
EXTD=
EXTT0=
EXTT1=
EXTT2=
EXTT3=
EXTT4=
EXTT5=
EXTT6=
EXTT7=
EXTT8=
EXTT9=
PLAYORDER=
